<svg xmlns="http://www.w3.org/2000/svg" xmlns:xlink="http://www.w3.org/1999/xlink" width="500" zoomAndPan="magnify" viewBox="0 0 375 374.999991" height="500" preserveAspectRatio="xMidYMid meet" version="1.0"><defs><clipPath id="736aa3d120"><path d="M 7 61 L 368 61 L 368 371.453125 L 7 371.453125 Z M 7 61 " clip-rule="nonzero"/></clipPath><clipPath id="6d21a3584d"><path d="M 0 3.203125 L 374.996094 3.203125 L 374.996094 329 L 0 329 Z M 0 3.203125 " clip-rule="nonzero"/></clipPath></defs><g clip-path="url(#736aa3d120)"><path fill="#16222a" d="M 7.96875 371.234375 L 189.878906 61.667969 L 367.242188 371.234375 L 187.605469 300.449219 L 7.96875 371.234375 " fill-opacity="1" fill-rule="nonzero"/></g><g clip-path="url(#6d21a3584d)"><path fill="#16222a" d="M 14.785156 324.816406 C 27.371094 303.398438 39.957031 281.984375 52.542969 260.566406 C 78.066406 217.128906 103.589844 173.691406 129.113281 130.261719 C 149.222656 96.039062 169.335938 61.820312 189.4375 27.601562 C 191.855469 23.480469 194.277344 19.363281 196.695312 15.242188 L 183.054688 15.242188 C 195.457031 36.890625 207.847656 58.53125 220.25 80.167969 C 245.304688 123.898438 270.359375 167.628906 295.417969 211.355469 C 314.917969 245.394531 334.414062 279.429688 353.914062 313.464844 C 356.078125 317.25 358.25 321.03125 360.417969 324.816406 C 363.394531 320.941406 366.363281 317.070312 369.34375 313.199219 C 335.367188 299.816406 301.402344 286.425781 267.4375 273.042969 C 246.78125 264.90625 226.136719 256.769531 205.480469 248.625 C 200.589844 246.707031 195.707031 244.777344 190.828125 242.855469 C 187.492188 241.542969 184.917969 242.640625 181.878906 243.84375 C 141.78125 259.648438 101.679688 275.445312 61.59375 291.242188 C 43.015625 298.5625 24.441406 305.878906 5.867188 313.199219 C 1.863281 314.777344 -0.886719 318.433594 0.347656 322.925781 C 1.402344 326.746094 6.054688 330.027344 10.066406 328.445312 C 44.035156 315.0625 78 301.675781 111.960938 288.292969 C 137.878906 278.085938 163.785156 267.871094 189.695312 257.664062 L 185.5 257.664062 C 219.464844 271.046875 253.429688 284.433594 287.402344 297.816406 C 313.3125 308.027344 339.21875 318.238281 365.136719 328.445312 C 371.90625 331.113281 377.222656 322.367188 374.054688 316.835938 C 361.660156 295.195312 349.261719 273.554688 336.859375 251.914062 C 311.804688 208.1875 286.757812 164.449219 261.699219 120.71875 C 242.199219 86.683594 222.695312 52.648438 203.195312 18.621094 C 201.03125 14.832031 198.863281 11.054688 196.691406 7.265625 C 193.730469 2.097656 186.039062 2.183594 183.050781 7.265625 C 170.46875 28.683594 157.886719 50.101562 145.292969 71.519531 C 119.773438 114.957031 94.253906 158.386719 68.726562 201.820312 C 48.621094 236.039062 28.511719 270.265625 8.398438 304.484375 C 5.980469 308.601562 3.5625 312.71875 1.140625 316.835938 C -4.03125 325.640625 9.625 333.59375 14.785156 324.816406 " fill-opacity="1" fill-rule="nonzero"/></g></svg>